# xmcd
#
# Track frame offsets: 
#        150
#        15899
#        38541
#        58335
#        110068
#        134790
#        155275
#        167712
#        184334
#        198307
#        216769
#
# Disc length: 3210 seconds
#
# Revision: 1
# Processed by: cddbd v1.5.1PL2 Copyright (c) Steve Scherf et al.
# Submitted via: ExactAudioCopy v0.95a5
#
DISCID=990c880b
DTITLE=Ron Clearfield - Music in the Silence
DYEAR=2006
DGENRE=New Age
TTITLE0=Music in the Silence
TTITLE1=Appalachian Fantasy
TTITLE2=Himalayan Reverie
TTITLE3=Song of a New Eearth
TTITLE4=Cello Raga
TTITLE5=Soaring
TTITLE6=The Challenge
TTITLE7=Resolution
TTITLE8=Lo, How a Rose E'er Blooming
TTITLE9=Global Awakening
TTITLE10=Music in the Silence (reprieve)
EXTD=YEAR: 2004
EXTT0=
EXTT1=
EXTT2=
EXTT3=
EXTT4=
EXTT5=
EXTT6=
EXTT7=
EXTT8=
EXTT9=
EXTT10=
PLAYORDER=
